<?xml version="1.0" encoding="UTF-8" standalone="no"?>
<!-- Created with Inkscape (http://www.inkscape.org/) -->

<svg
   xmlns:dc="http://purl.org/dc/elements/1.1/"
   xmlns:cc="http://creativecommons.org/ns#"
   xmlns:rdf="http://www.w3.org/1999/02/22-rdf-syntax-ns#"
   xmlns:svg="http://www.w3.org/2000/svg"
   xmlns="http://www.w3.org/2000/svg"
   xmlns:xlink="http://www.w3.org/1999/xlink"
   xmlns:sodipodi="http://sodipodi.sourceforge.net/DTD/sodipodi-0.dtd"
   xmlns:inkscape="http://www.inkscape.org/namespaces/inkscape"
   width="210mm"
   height="297mm"
   id="svg2"
   version="1.1"
   inkscape:version="0.48.0 r9654"
   sodipodi:docname="kanpress.svg">
  <defs
     id="defs4" />
  <sodipodi:namedview
     id="base"
     pagecolor="#ffffff"
     bordercolor="#666666"
     borderopacity="1.0"
     inkscape:pageopacity="0.0"
     inkscape:pageshadow="2"
     inkscape:zoom="1.979899"
     inkscape:cx="458.3241"
     inkscape:cy="748.44137"
     inkscape:document-units="px"
     inkscape:current-layer="layer1"
     showgrid="false"
     inkscape:window-width="1280"
     inkscape:window-height="720"
     inkscape:window-x="0"
     inkscape:window-y="27"
     inkscape:window-maximized="1" />
  <metadata
     id="metadata7">
    <rdf:RDF>
      <cc:Work
         rdf:about="">
        <dc:format>image/svg+xml</dc:format>
        <dc:type
           rdf:resource="http://purl.org/dc/dcmitype/StillImage" />
        <dc:title></dc:title>
      </cc:Work>
    </rdf:RDF>
  </metadata>
  <g
     inkscape:label="Capa 1"
     inkscape:groupmode="layer"
     id="layer1">
    <g
       id="g3834"
       transform="matrix(-1.3408309,0,0,-1.3408309,829.0479,781.55332)"
       inkscape:export-filename="/home/isra/Desktop/path3925.png"
       inkscape:export-xdpi="36.233536"
       inkscape:export-ydpi="36.233536">
      <path
         style="font-size:medium;font-style:normal;font-variant:normal;font-weight:normal;font-stretch:normal;text-indent:0;text-align:start;text-decoration:none;line-height:normal;letter-spacing:normal;word-spacing:normal;text-transform:none;direction:ltr;block-progression:tb;writing-mode:lr-tb;text-anchor:start;baseline-shift:baseline;color:#000000;fill:#ffffff;fill-opacity:1;stroke:none;stroke-width:1;marker:none;visibility:visible;display:inline;overflow:visible;enable-background:accumulate;font-family:Sans;-inkscape-font-specification:Sans"
         d="m 352.85805,326.42357 c -1.77185,3.59531 -4.07217,6.83836 -5.59375,10.09375 l -0.0312,0.0937 0,0.0937 c 0.0624,14.49066 0.0312,9.71561 0.0312,24.26459 l 0,0.5 0.5,0 11.125,0 0.5,0 0,-0.5 0,-24.26459 0,-0.0937 -0.0312,-0.0937 c -1.5332,-3.53508 -3.9601,-6.63629 -5.59375,-10.09375 -0.27748,-0.68304 -0.57677,-0.703 -0.9063,0 z"
         id="path3826"
         inkscape:connector-curvature="0"
         sodipodi:nodetypes="ccccscccccccccc" />
      <path
         sodipodi:nodetypes="ccccsccccccccccccccccc"
         inkscape:connector-curvature="0"
         id="rect3768"
         d="m 352.85805,326.42357 c -1.77185,3.59531 -4.07217,6.83836 -5.59375,10.09375 l -0.0312,0.0937 0,0.0937 c 0.0624,14.49066 0.0312,9.71561 0.0312,24.26459 l 0,0.5 0.5,0 11.125,0 0.5,0 0,-0.5 0,-24.26459 0,-0.0937 -0.0312,-0.0937 c -1.5332,-3.53508 -3.9601,-6.63629 -5.59375,-10.09375 -0.27748,-0.68304 -0.57677,-0.703 -0.9063,0 z m 2.75,6.469 c 0.72055,1.17168 1.48917,2.33972 2.20089,3.9685 l 0.089,22.9387 -9.00863,0 c 6.9e-4,-14.35206 0.0299,-8.70256 -0.0312,-23.0012 0.69199,-1.4751 1.36935,-2.76025 2.0625,-3.906 1.91475,1.03566 2.74477,1.02152 4.68744,0 z"
         style="font-size:medium;font-style:normal;font-variant:normal;font-weight:normal;font-stretch:normal;text-indent:0;text-align:start;text-decoration:none;line-height:normal;letter-spacing:normal;word-spacing:normal;text-transform:none;direction:ltr;block-progression:tb;writing-mode:lr-tb;text-anchor:start;baseline-shift:baseline;color:#000000;fill:#999999;fill-opacity:1;stroke:none;stroke-width:1;marker:none;visibility:visible;display:inline;overflow:visible;enable-background:accumulate;font-family:Sans;-inkscape-font-specification:Sans" />
    </g>
    <image
       y="263.9187"
       x="105.23038"
       id="image2993"
       xlink:href="file:///var/www/wordpress/wp-admin/images/wp-badge.png"
       height="194"
       width="173" />
    <g
       transform="matrix(-0.67041545,1.1611936,-1.1611936,-0.67041545,964.62,158.79968)"
       id="g3838"
       inkscape:transform-center-y="-15.329175"
       inkscape:transform-center-x="22.672707"
       inkscape:export-filename="/home/isra/Desktop/path3925.png"
       inkscape:export-xdpi="36.233536"
       inkscape:export-ydpi="36.233536">
      <path
         sodipodi:nodetypes="ccccscccccccccc"
         inkscape:connector-curvature="0"
         id="path3840"
         d="m 352.85805,326.42357 c -1.77185,3.59531 -4.07217,6.83836 -5.59375,10.09375 l -0.0312,0.0937 0,0.0937 c 0.0624,14.49066 0.0312,9.71561 0.0312,24.26459 l 0,0.5 0.5,0 11.125,0 0.5,0 0,-0.5 0,-24.26459 0,-0.0937 -0.0312,-0.0937 c -1.5332,-3.53508 -3.9601,-6.63629 -5.59375,-10.09375 -0.27748,-0.68304 -0.57677,-0.703 -0.9063,0 z"
         style="font-size:medium;font-style:normal;font-variant:normal;font-weight:normal;font-stretch:normal;text-indent:0;text-align:start;text-decoration:none;line-height:normal;letter-spacing:normal;word-spacing:normal;text-transform:none;direction:ltr;block-progression:tb;writing-mode:lr-tb;text-anchor:start;baseline-shift:baseline;color:#000000;fill:#ffffff;fill-opacity:1;stroke:none;stroke-width:1;marker:none;visibility:visible;display:inline;overflow:visible;enable-background:accumulate;font-family:Sans;-inkscape-font-specification:Sans" />
      <path
         style="font-size:medium;font-style:normal;font-variant:normal;font-weight:normal;font-stretch:normal;text-indent:0;text-align:start;text-decoration:none;line-height:normal;letter-spacing:normal;word-spacing:normal;text-transform:none;direction:ltr;block-progression:tb;writing-mode:lr-tb;text-anchor:start;baseline-shift:baseline;color:#000000;fill:#999999;fill-opacity:1;stroke:none;stroke-width:1;marker:none;visibility:visible;display:inline;overflow:visible;enable-background:accumulate;font-family:Sans;-inkscape-font-specification:Sans"
         d="m 352.85805,326.42357 c -1.77185,3.59531 -4.07217,6.83836 -5.59375,10.09375 l -0.0312,0.0937 0,0.0937 c 0.0624,14.49066 0.0312,9.71561 0.0312,24.26459 l 0,0.5 0.5,0 11.125,0 0.5,0 0,-0.5 0,-24.26459 0,-0.0937 -0.0312,-0.0937 c -1.5332,-3.53508 -3.9601,-6.63629 -5.59375,-10.09375 -0.27748,-0.68304 -0.57677,-0.703 -0.9063,0 z m 2.75,6.469 c 0.72055,1.17168 1.48917,2.33972 2.20089,3.9685 l 0.089,22.9387 -9.00863,0 c 6.9e-4,-14.35206 0.0299,-8.70256 -0.0312,-23.0012 0.69199,-1.4751 1.36935,-2.76025 2.0625,-3.906 1.91475,1.03566 2.74477,1.02152 4.68744,0 z"
         id="path3842"
         inkscape:connector-curvature="0"
         sodipodi:nodetypes="ccccsccccccccccccccccc" />
    </g>
    <g
       transform="matrix(-0.67041545,-1.1611936,1.1611936,-0.67041545,219.74522,979.3251)"
       id="g3844"
       inkscape:transform-center-y="-15.355333"
       inkscape:transform-center-x="-22.652029"
       inkscape:export-filename="/home/isra/Desktop/path3925.png"
       inkscape:export-xdpi="36.233536"
       inkscape:export-ydpi="36.233536">
      <path
         sodipodi:nodetypes="ccccscccccccccc"
         inkscape:connector-curvature="0"
         id="path3846"
         d="m 352.85805,326.42357 c -1.77185,3.59531 -4.07217,6.83836 -5.59375,10.09375 l -0.0312,0.0937 0,0.0937 c 0.0624,14.49066 0.0312,9.71561 0.0312,24.26459 l 0,0.5 0.5,0 11.125,0 0.5,0 0,-0.5 0,-24.26459 0,-0.0937 -0.0312,-0.0937 c -1.5332,-3.53508 -3.9601,-6.63629 -5.59375,-10.09375 -0.27748,-0.68304 -0.57677,-0.703 -0.9063,0 z"
         style="font-size:medium;font-style:normal;font-variant:normal;font-weight:normal;font-stretch:normal;text-indent:0;text-align:start;text-decoration:none;line-height:normal;letter-spacing:normal;word-spacing:normal;text-transform:none;direction:ltr;block-progression:tb;writing-mode:lr-tb;text-anchor:start;baseline-shift:baseline;color:#000000;fill:#ffffff;fill-opacity:1;stroke:none;stroke-width:1;marker:none;visibility:visible;display:inline;overflow:visible;enable-background:accumulate;font-family:Sans;-inkscape-font-specification:Sans" />
      <path
         style="font-size:medium;font-style:normal;font-variant:normal;font-weight:normal;font-stretch:normal;text-indent:0;text-align:start;text-decoration:none;line-height:normal;letter-spacing:normal;word-spacing:normal;text-transform:none;direction:ltr;block-progression:tb;writing-mode:lr-tb;text-anchor:start;baseline-shift:baseline;color:#000000;fill:#999999;fill-opacity:1;stroke:none;stroke-width:1;marker:none;visibility:visible;display:inline;overflow:visible;enable-background:accumulate;font-family:Sans;-inkscape-font-specification:Sans"
         d="m 352.85805,326.42357 c -1.77185,3.59531 -4.07217,6.83836 -5.59375,10.09375 l -0.0312,0.0937 0,0.0937 c 0.0624,14.49066 0.0312,9.71561 0.0312,24.26459 l 0,0.5 0.5,0 11.125,0 0.5,0 0,-0.5 0,-24.26459 0,-0.0937 -0.0312,-0.0937 c -1.5332,-3.53508 -3.9601,-6.63629 -5.59375,-10.09375 -0.27748,-0.68304 -0.57677,-0.703 -0.9063,0 z m 2.75,6.469 c 0.72055,1.17168 1.48917,2.33972 2.20089,3.9685 l 0.089,22.9387 -9.00863,0 c 6.9e-4,-14.35206 0.0299,-8.70256 -0.0312,-23.0012 0.69199,-1.4751 1.36935,-2.76025 2.0625,-3.906 1.91475,1.03566 2.74477,1.02152 4.68744,0 z"
         id="path3848"
         inkscape:connector-curvature="0"
         sodipodi:nodetypes="ccccsccccccccccccccccc" />
    </g>
    <path
       style="fill:#cccccc;fill-opacity:1;stroke:none"
       d="m 413.15625,393.75 0,-106.0625 -113.90625,0 0,106.0625 113.90625,0 z M 355.3125,373.84375 c -18.43185,0 -33.375,-14.94315 -33.375,-33.375 0,-18.43185 14.94315,-33.375 33.375,-33.375 18.43185,0 33.375,14.94315 33.375,33.375 0,18.43185 -14.94315,33.375 -33.375,33.375 z"
       id="rect3828"
       inkscape:connector-curvature="0"
       inkscape:export-filename="/home/isra/Desktop/path3925.png"
       inkscape:export-xdpi="33.942249"
       inkscape:export-ydpi="33.942249" />
    <path
       transform="matrix(-0.89060739,0,0,-0.89060739,663.44722,633.79278)"
       d="m 384.86811,329.34549 a 38.890873,38.890873 0 1 1 -77.78175,0 38.890873,38.890873 0 1 1 77.78175,0 z"
       sodipodi:ry="38.890873"
       sodipodi:rx="38.890873"
       sodipodi:cy="329.34549"
       sodipodi:cx="345.97723"
       id="path2998"
       style="fill:none;stroke:#808080;stroke-width:2.75889945;stroke-miterlimit:4;stroke-opacity:0.94117647;stroke-dasharray:none"
       sodipodi:type="arc"
       inkscape:export-filename="/home/isra/Desktop/path3925.png"
       inkscape:export-xdpi="36.233536"
       inkscape:export-ydpi="36.233536" />
    <path
       sodipodi:type="arc"
       style="fill:none;stroke:#ffffff;stroke-width:2.75889945;stroke-miterlimit:4;stroke-opacity:1;stroke-dasharray:none"
       id="path3925"
       sodipodi:cx="345.97723"
       sodipodi:cy="329.34549"
       sodipodi:rx="38.890873"
       sodipodi:ry="38.890873"
       d="m 384.86811,329.34549 a 38.890873,38.890873 0 1 1 -77.78175,0 38.890873,38.890873 0 1 1 77.78175,0 z"
       transform="matrix(-0.95268785,0,0,-0.95268785,684.92564,654.2387)"
       inkscape:export-xdpi="36.233536"
       inkscape:export-ydpi="36.233536" />
  </g>
</svg>
